<?xml version="1.0" encoding="UTF-8"?>
<svg version="1.1" xmlns="http://www.w3.org/2000/svg" width="128" height="128">
<path d="M0 0 C0.99 0.66 1.98 1.32 3 2 C3 2.66 3 3.32 3 4 C3.59167969 4.26039062 4.18335937 4.52078125 4.79296875 4.7890625 C13.87286431 9.7709521 20.06573607 22.14704803 22.90942383 31.63476562 C27.39424339 48.53733109 26.30042349 66.89934415 17.8125 82.375 C14.19867122 88.08516236 9.98033951 93.41524754 5 98 C4.34 98 3.68 98 3 98 C3 98.66 3 99.32 3 100 C-11.53574733 110.99102335 -29.18896214 115.03629653 -47.20654297 112.71582031 C-57.35815663 111.03178567 -65.46880843 107.8310838 -74 102 C-75.485 101.01 -75.485 101.01 -77 100 C-77 99.34 -77 98.68 -77 98 C-77.59167969 97.73960938 -78.18335937 97.47921875 -78.79296875 97.2109375 C-87.87286431 92.2290479 -94.06573607 79.85295197 -96.90942383 70.36523438 C-101.39424339 53.46266891 -100.30042349 35.10065585 -91.8125 19.625 C-88.19867122 13.91483764 -83.98033951 8.58475246 -79 4 C-78.34 4 -77.68 4 -77 4 C-77 3.34 -77 2.68 -77 2 C-54.49378935 -15.01778939 -23.19231286 -15.85198488 0 0 Z " fill="#1F1B1D" transform="translate(101,13)"/>
<path d="M0 0 C0.99 0.66 1.98 1.32 3 2 C3 2.66 3 3.32 3 4 C3.59167969 4.26039062 4.18335937 4.52078125 4.79296875 4.7890625 C13.87286431 9.7709521 20.06573607 22.14704803 22.90942383 31.63476562 C27.39424339 48.53733109 26.30042349 66.89934415 17.8125 82.375 C14.19867122 88.08516236 9.98033951 93.41524754 5 98 C4.34 98 3.68 98 3 98 C3 98.66 3 99.32 3 100 C-11.53574733 110.99102335 -29.18896214 115.03629653 -47.20654297 112.71582031 C-57.35815663 111.03178567 -65.46880843 107.8310838 -74 102 C-75.485 101.01 -75.485 101.01 -77 100 C-77 99.34 -77 98.68 -77 98 C-77.59167969 97.73960938 -78.18335937 97.47921875 -78.79296875 97.2109375 C-87.87286431 92.2290479 -94.06573607 79.85295197 -96.90942383 70.36523438 C-101.39424339 53.46266891 -100.30042349 35.10065585 -91.8125 19.625 C-88.19867122 13.91483764 -83.98033951 8.58475246 -79 4 C-78.34 4 -77.68 4 -77 4 C-77 3.34 -77 2.68 -77 2 C-54.49378935 -15.01778939 -23.19231286 -15.85198488 0 0 Z M-70 9 C-70.91652344 9.67482422 -70.91652344 9.67482422 -71.8515625 10.36328125 C-81.77385915 18.12190528 -87.33829364 29.87619972 -90 42 C-90.91333633 59.72223767 -88.23928445 73.16634315 -76.6875 87.3125 C-67.93097863 96.67091087 -55.23373985 103.49136179 -42.3125 104.203125 C-25.47924957 104.514453 -11.58732094 100.85794989 1.12109375 89.078125 C12.16066248 76.86804067 16.78981678 62.71863822 16.37890625 46.46484375 C15.74493515 35.97364459 11.54824085 26.1695601 5 18 C3.86498047 16.53820313 3.86498047 16.53820313 2.70703125 15.046875 C-3.23039155 7.97856737 -12.19710157 2.58015989 -21 0 C-22.05445312 -0.34289062 -23.10890625 -0.68578125 -24.1953125 -1.0390625 C-40.23367148 -5.08981846 -57.09661318 -1.24370913 -70 9 Z " fill="#DC0074" transform="translate(101,13)"/>
<path d="M0 0 C8.84857751 3.41345814 16.35956578 7.37293843 21 16 C21.66796875 18.26953125 21.66796875 18.26953125 22 20 C23.32 19.67 24.64 19.34 26 19 C26.495 19.99 26.495 19.99 27 21 C27.35191406 20.27554688 27.70382813 19.55109375 28.06640625 18.8046875 C33.45454593 8.25350015 39.6290284 2.79032387 51 -1 C55.54064588 -1.35727543 55.54064588 -1.35727543 57.6875 0.3125 C61.0426787 4.62630118 61.0426787 4.62630118 60.6796875 7.8046875 C60.45539063 8.85914063 60.23109375 9.91359375 60 11 C59.85820313 12.01320313 59.71640625 13.02640625 59.5703125 14.0703125 C59.42335938 15.07835938 59.27640625 16.08640625 59.125 17.125 C58.98320313 18.13820313 58.84140625 19.15140625 58.6953125 20.1953125 C57.94338439 23.22837084 57.2202362 24.810178 55 27 C52.84375 27.6796875 52.84375 27.6796875 50.5 27.875 C49.7265625 27.95492187 48.953125 28.03484375 48.15625 28.1171875 C46 28 46 28 43 26 C43 26.66 43 27.32 43 28 C43.66 28.20625 44.32 28.4125 45 28.625 C53.23516976 32.3994528 53.23516976 32.3994528 56 36 C56.61643308 40.18075902 55.88891515 43.89886874 55 48 C54.79375 49.00546875 54.5875 50.0109375 54.375 51.046875 C53.14271126 56.228089 51.86312329 60.13687671 48 64 C42.25302497 63.06171836 39.27128042 61.07421217 35.578125 56.57421875 C32.63755681 51.77759886 31.33177492 46.42636242 30 41 C29.54625 41.495 29.0925 41.99 28.625 42.5 C27 44 27 44 25 44 C24.67 43.34 24.34 42.68 24 42 C21.78956778 44.21043222 21.24584482 45.71567764 20.1875 48.625 C17.86420345 54.57091822 15.47775397 60.05319331 10.375 64.0625 C8 65 8 65 5 64 C-1.07552727 57.63460979 -3.01226808 48.15180735 -3.75 39.5625 C-3.63734067 36.46436852 -3.22379362 35.28100783 -1.2734375 32.83203125 C4.03118762 28 4.03118762 28 7 28 C7 27.34 7 26.68 7 26 C6.31292969 26.04640625 5.62585937 26.0928125 4.91796875 26.140625 C3.56638672 26.19476563 3.56638672 26.19476563 2.1875 26.25 C1.29417969 26.29640625 0.40085937 26.3428125 -0.51953125 26.390625 C-3 26 -3 26 -4.78125 24.375 C-6.29941661 21.41652148 -6.50751019 19.06181249 -6.6875 15.75 C-6.75324219 14.67234375 -6.81898437 13.5946875 -6.88671875 12.484375 C-6.92410156 11.66453125 -6.96148437 10.8446875 -7 10 C-7.66 10 -8.32 10 -9 10 C-9.125 3.375 -9.125 3.375 -8 0 C-5.04543259 -1.4772837 -3.19465782 -0.72417273 0 0 Z " fill="#F0037E" transform="translate(39,36)"/>
<path d="M0 0 C2.26904809 1.76481518 3.3803772 3.57056581 5 6 C4.6796875 8.8046875 4.6796875 8.8046875 4 12 C3.85820313 13.01320313 3.71640625 14.02640625 3.5703125 15.0703125 C3.42335937 16.07835938 3.27640625 17.08640625 3.125 18.125 C2.98320313 19.13820313 2.84140625 20.15140625 2.6953125 21.1953125 C1.94338439 24.22837084 1.2202362 25.810178 -1 28 C-3.15625 28.6796875 -3.15625 28.6796875 -5.5 28.875 C-6.2734375 28.95492187 -7.046875 29.03484375 -7.84375 29.1171875 C-10 29 -10 29 -13 27 C-13 27.66 -13 28.32 -13 29 C-12.01 29.309375 -12.01 29.309375 -11 29.625 C-2.76483024 33.3994528 -2.76483024 33.3994528 0 37 C0.61643308 41.18075902 -0.11108485 44.89886874 -1 49 C-1.309375 50.50820312 -1.309375 50.50820312 -1.625 52.046875 C-2.85728874 57.228089 -4.13687671 61.13687671 -8 65 C-13.74697503 64.06171836 -16.72871958 62.07421217 -20.421875 57.57421875 C-23.36244319 52.77759886 -24.66822508 47.42636242 -26 42 C-26.45375 42.495 -26.9075 42.99 -27.375 43.5 C-29 45 -29 45 -31 45 C-30.855625 44.31292969 -30.71125 43.62585938 -30.5625 42.91796875 C-30.376875 42.01691406 -30.19125 41.11585937 -30 40.1875 C-29.814375 39.29417969 -29.62875 38.40085938 -29.4375 37.48046875 C-28.91315157 34.92739307 -28.91315157 34.92739307 -29 32 C-28.01 31.34 -27.02 30.68 -26 30 C-25.67576429 28.0221622 -25.36177013 26.03927142 -25.18359375 24.04296875 C-24.96863748 21.65100852 -24.51284069 19.34441459 -24 17 C-24.66 16.67 -25.32 16.34 -26 16 C-20.82398341 7.70995718 -10.56749633 -1.39046004 0 0 Z " fill="#DC0369" transform="translate(95,35)"/>
<path d="M0 0 C6.9223462 -0.39643392 11.43857065 2.05057916 17 6 C21.08216575 10.14027487 24.15531755 14.4569101 26 20 C25.48717949 24.51282051 25.48717949 24.51282051 24 26 C16.97215129 26.45340959 10.55589803 25.70577847 4 23 C0.5591792 19.72302781 -0.90661921 16.97747557 -1.1328125 12.1875 C-1.13023438 11.135625 -1.12765625 10.08375 -1.125 9 C-1.12757812 7.948125 -1.13015625 6.89625 -1.1328125 5.8125 C-1 3 -1 3 0 0 Z " fill="#F960B9" transform="translate(36,37)"/>
<path d="M0 0 C-0.99 0.33 -1.98 0.66 -3 1 C-3.0816082 3.37570543 -3.14077222 5.74855841 -3.1875 8.125 C-3.21263672 8.79015625 -3.23777344 9.4553125 -3.26367188 10.140625 C-3.3332236 14.87014242 -2.53781286 18.01285346 0 22 C6.34060384 26.22706923 13.58432038 26.2354184 21 26 C21.0825 25.21625 21.165 24.4325 21.25 23.625 C22 21 22 21 24.0625 19.6875 C24.701875 19.460625 25.34125 19.23375 26 19 C26.495 19.99 26.495 19.99 27 21 C27.45375 20.175 27.9075 19.35 28.375 18.5 C28.91125 17.675 29.4475 16.85 30 16 C30.66 16 31.32 16 32 16 C31.93994409 18.10495964 31.85114641 20.20911435 31.75 22.3125 C31.70359375 23.48425781 31.6571875 24.65601563 31.609375 25.86328125 C31 29 31 29 28.953125 30.91796875 C27.98632812 31.45357422 27.98632812 31.45357422 27 32 C27.33 32.66 27.66 33.32 28 34 C27.71758117 36.3400417 27.38749213 38.67504723 27 41 C26.01 41.33 25.02 41.66 24 42 C24 39.36 24 36.72 24 34 C23.34 34 22.68 34 22 34 C21.67 34.66 21.34 35.32 21 36 C21 35.34 21 34.68 21 34 C19.39125 34.2784375 19.39125 34.2784375 17.75 34.5625 C12.95441741 35.19733562 8.41685514 34.65228547 3.63671875 34.05859375 C0.76496048 33.74282449 0.76496048 33.74282449 -2 36 C-0.50958227 32.20620942 1.69062512 30.31656242 5 28 C5.66 28 6.32 28 7 28 C7 27.34 7 26.68 7 26 C6.31292969 26.04640625 5.62585937 26.0928125 4.91796875 26.140625 C3.56638672 26.19476563 3.56638672 26.19476563 2.1875 26.25 C1.29417969 26.29640625 0.40085937 26.3428125 -0.51953125 26.390625 C-3 26 -3 26 -4.78125 24.375 C-6.29941661 21.41652148 -6.50751019 19.06181249 -6.6875 15.75 C-6.75324219 14.67234375 -6.81898437 13.5946875 -6.88671875 12.484375 C-6.92410156 11.66453125 -6.96148437 10.8446875 -7 10 C-7.66 10 -8.32 10 -9 10 C-9.125 3.375 -9.125 3.375 -8 0 C-5.13822943 -1.43088528 -3.06624227 -0.59991697 0 0 Z " fill="#FA179A" transform="translate(39,36)"/>
<path d="M0 0 C2.375 2 2.375 2 4 4 C3.34 4.66 2.68 5.32 2 6 C2.66 6.33 3.32 6.66 4 7 C4 6.34 4 5.68 4 5 C7.16115776 6.36983503 7.9927092 6.9890638 10 10 C9.01 10 8.02 10 7 10 C7.66 10.66 8.32 11.32 9 12 C10.32 12 11.64 12 13 12 C13.66 13.32 14.32 14.64 15 16 C14.34 16.33 13.68 16.66 13 17 C13.33 17.99 13.66 18.98 14 20 C14 20.99 14 21.98 14 23 C14.66 23.33 15.32 23.66 16 24 C16 23.34 16 22.68 16 22 C16.99 21.67 17.98 21.34 19 21 C18.55005243 22.79379098 18.08975857 24.58498928 17.625 26.375 C17.24214844 27.87160156 17.24214844 27.87160156 16.8515625 29.3984375 C16 32 16 32 14 34 C14 32.68 14 31.36 14 30 C12.68 30.33 11.36 30.66 10 31 C9.41605469 29.91332031 9.41605469 29.91332031 8.8203125 28.8046875 C3.17557672 19.04995977 -3.74491098 15.01286092 -14 11 C-13.01 10.67 -12.02 10.34 -11 10 C-9.30117552 7.50240018 -9.30117552 7.50240018 -8 5 C-8.66 4.67 -9.32 4.34 -10 4 C-10 3.34 -10 2.68 -10 2 C-6.59575912 -0.09491746 -3.96585158 -0.49573145 0 0 Z " fill="#3D3C3D" transform="translate(51,25)"/>
<path d="M0 0 C4.58833178 2.43755126 7.84240056 5.29306966 10 10.0625 C10.3125 13.25 10.3125 13.25 10 16.0625 C8 18.0625 8 18.0625 6.01171875 18.1796875 C0.87589068 17.64452558 -2.26046302 16.91889751 -6 13.0625 C-7.44430855 10.17388291 -7.37688506 8.26602299 -7 5.0625 C-3.19891008 0.09996594 -3.19891008 0.09996594 0 0 Z " fill="#F97CC5" transform="translate(51,43.9375)"/>
<path d="M0 0 C-0.99 0.33 -1.98 0.66 -3 1 C-3.0816082 3.37570543 -3.14077222 5.74855841 -3.1875 8.125 C-3.21263672 8.79015625 -3.23777344 9.4553125 -3.26367188 10.140625 C-3.3332236 14.87014242 -2.53781286 18.01285346 0 22 C6.34060384 26.22706923 13.58432038 26.2354184 21 26 C21.0825 25.21625 21.165 24.4325 21.25 23.625 C21.4975 22.75875 21.745 21.8925 22 21 C23.32 20.34 24.64 19.68 26 19 C25.67 21.97 25.34 24.94 25 28 C20.07381078 30.41282737 16.60705805 31.52896774 11 31 C8.5625 30 8.5625 30 7 29 C7 28.01 7 27.02 7 26 C6.31292969 26.04640625 5.62585937 26.0928125 4.91796875 26.140625 C3.56638672 26.19476563 3.56638672 26.19476563 2.1875 26.25 C1.29417969 26.29640625 0.40085937 26.3428125 -0.51953125 26.390625 C-3 26 -3 26 -4.78125 24.375 C-6.29941661 21.41652148 -6.50751019 19.06181249 -6.6875 15.75 C-6.75324219 14.67234375 -6.81898437 13.5946875 -6.88671875 12.484375 C-6.92410156 11.66453125 -6.96148437 10.8446875 -7 10 C-7.66 10 -8.32 10 -9 10 C-9.125 3.375 -9.125 3.375 -8 0 C-5.13822943 -1.43088528 -3.06624227 -0.59991697 0 0 Z " fill="#FB34A8" transform="translate(39,36)"/>
<path d="M0 0 C1.32 0.66 2.64 1.32 4 2 C2.93382353 23.06617647 2.93382353 23.06617647 -4 30 C-6.35171131 29.40138258 -8.6859378 28.73075648 -11 28 C-11.33 27.34 -11.66 26.68 -12 26 C-5.375 22.125 -5.375 22.125 -2 21 C-1.66034526 18.81347261 -1.32857523 16.62571975 -1 14.4375 C-0.814375 13.21933594 -0.62875 12.00117187 -0.4375 10.74609375 C-0.01444923 7.12372152 0.07501425 3.64287954 0 0 Z " fill="#9B0D3C" transform="translate(91,70)"/>
<path d="M0 0 C2 1 2 1 3 2 C4.093125 1.95875 5.18625 1.9175 6.3125 1.875 C10.15657758 2.00530771 11.29862359 2.40667864 14 5 C11.25 7.0625 11.25 7.0625 8 9 C5.875 8.5625 5.875 8.5625 4 8 C1.75244247 9.3516367 1.75244247 9.3516367 0 11 C-0.33 10.01 -0.66 9.02 -1 8 C-1.598125 8.33 -2.19625 8.66 -2.8125 9 C-5 10 -5 10 -8 10 C-9.33981486 10.3062434 -10.67511887 10.63451555 -12 11 C-8.68542782 6.30435607 -4.63720719 3.27530896 0 0 Z " fill="#2F252A" transform="translate(36,18)"/>
<path d="M0 0 C5.41538462 -0.36923077 5.41538462 -0.36923077 8.375 1.5 C8.91125 1.995 9.4475 2.49 10 3 C9.38125 3.2475 8.7625 3.495 8.125 3.75 C5.51001756 5.28822496 4.93291754 6.12350424 4 9 C3.51109076 14.28021983 4.34817146 17.4388549 7 22 C7.33 22.66 7.66 23.32 8 24 C4.08695821 22.73090537 2.14389712 21.53743024 0 18 C-1.07427471 14.77717587 -1.1332963 12.38488847 -1.125 9 C-1.12757812 7.948125 -1.13015625 6.89625 -1.1328125 5.8125 C-1 3 -1 3 0 0 Z " fill="#FE3DAE" transform="translate(36,37)"/>
<path d="M0 0 C0.66 0 1.32 0 2 0 C2.53657167 6.30471717 0.86611387 10.43527242 -2 16 C-2.39703125 16.79148437 -2.7940625 17.58296875 -3.203125 18.3984375 C-5.58727868 22.94040115 -7.93269207 26.74615365 -12 30 C-14.8125 30.8125 -14.8125 30.8125 -17 31 C-17.99 29.35 -18.98 27.7 -20 26 C-19.071875 26.185625 -18.14375 26.37125 -17.1875 26.5625 C-13.98656229 27.24123881 -13.98656229 27.24123881 -11 26 C-9.52875718 23.53507504 -8.24105928 21.13990588 -7 18.5625 C-6.64550781 17.84126953 -6.29101562 17.12003906 -5.92578125 16.37695312 C-3.37183901 11.06494314 -1.3285484 5.75704305 0 0 Z " fill="#9E607E" transform="translate(61,70)"/>
<path d="M0 0 C1.8125 1 1.8125 1 3.8125 4 C2.6059375 4.4640625 2.6059375 4.4640625 1.375 4.9375 C-1.07830405 5.76335345 -1.07830405 5.76335345 -2.1875 7 C-2.09441463 10.48618881 -2.09441463 10.48618881 -1.1875 14 C0.47916667 15.66666667 0.47916667 15.66666667 2.8125 16 C5.46741264 15.68393897 7.42455246 15.19397377 9.8125 14 C9.1525 15.32 8.4925 16.64 7.8125 18 C1.98568823 17.74610842 -1.93165528 17.38883987 -6.1875 13 C-7.63180855 10.11138291 -7.56438506 8.20352299 -7.1875 5 C-3.35771277 0 -3.35771277 0 0 0 Z " fill="#FE6FC3" transform="translate(51.1875,44)"/>
<path d="M0 0 C0.5775 0.37125 1.155 0.7425 1.75 1.125 C1.75 1.785 1.75 2.445 1.75 3.125 C1.09 3.125 0.43 3.125 -0.25 3.125 C-0.25 3.785 -0.25 4.445 -0.25 5.125 C0.3275 4.91875 0.905 4.7125 1.5 4.5 C4.26967567 4.03838739 5.39561267 4.69555055 7.75 6.125 C7.75 8.105 7.75 10.085 7.75 12.125 C3.73696492 10.568154 -0.1592928 8.81361143 -4.0625 7 C-5.22394531 6.46117187 -6.38539062 5.92234375 -7.58203125 5.3671875 C-8.46246094 4.95726562 -9.34289063 4.54734375 -10.25 4.125 C-9.26 3.795 -8.27 3.465 -7.25 3.125 C-6.92 2.465 -6.59 1.805 -6.25 1.125 C-3.74135451 -0.60510034 -2.90919109 -1.13135209 0 0 Z " fill="#4A3B43" transform="translate(47.25,31.875)"/>
<path d="M0 0 C-0.99 0.33 -1.98 0.66 -3 1 C-4.17700048 5.62459244 -4.11408412 10.07866462 -4.0625 14.8125 C-4.05798828 15.60076172 -4.05347656 16.38902344 -4.04882812 17.20117188 C-4.03711312 19.13414761 -4.01917998 21.06708393 -4 23 C-3.01 23.33 -2.02 23.66 -1 24 C-0.34 24.66 0.32 25.32 1 26 C-1.375 25.6875 -1.375 25.6875 -4 25 C-6.26954631 21.59568053 -6.36549949 19.83475798 -6.625 15.8125 C-6.69976562 14.72582031 -6.77453125 13.63914062 -6.8515625 12.51953125 C-6.92503906 11.27236328 -6.92503906 11.27236328 -7 10 C-7.66 10 -8.32 10 -9 10 C-9.125 3.375 -9.125 3.375 -8 0 C-5.13822943 -1.43088528 -3.06624227 -0.59991697 0 0 Z " fill="#EF279B" transform="translate(39,36)"/>
<path d="M0 0 C1.875 0.125 1.875 0.125 4 1 C5.25 4.0625 5.25 4.0625 6 7 C6.6496875 5.7934375 6.6496875 5.7934375 7.3125 4.5625 C9 2 9 2 12 1 C11.55005243 2.79379098 11.08975857 4.58498928 10.625 6.375 C10.36976562 7.37273438 10.11453125 8.37046875 9.8515625 9.3984375 C9 12 9 12 7 14 C7 12.68 7 11.36 7 10 C5.68 10.33 4.36 10.66 3 11 C1.35 8.03 -0.3 5.06 -2 2 C-1.34 2 -0.68 2 0 2 C0 1.34 0 0.68 0 0 Z " fill="#55444E" transform="translate(58,45)"/>
<path d="M0 0 C2.375 2 2.375 2 4 4 C0.46046211 6.4271117 -1.71156712 7.33856049 -6 7 C-6.99 7 -7.98 7 -9 7 C-8.67 6.34 -8.34 5.68 -8 5 C-8.66 4.67 -9.32 4.34 -10 4 C-10 3.34 -10 2.68 -10 2 C-6.59575912 -0.09491746 -3.96585158 -0.49573145 0 0 Z " fill="#343333" transform="translate(51,25)"/>
<path d="M0 0 C-0.44472656 0.42410156 -0.88945313 0.84820312 -1.34765625 1.28515625 C-5.19304307 5.23994148 -5.19304307 5.23994148 -6.125 10.5625 C-4.87642193 14.37759967 -3.40630471 16.81746796 -1 20 C-3.74637817 19.62118922 -4.80049058 19.22167713 -6.6875 17.125 C-9.1872352 13.07780968 -9.32243381 9.67529032 -9 5 C-6.68018276 0.14947304 -5.27333923 -1.58200177 0 0 Z " fill="#FE52B7" transform="translate(48,41)"/>
<path d="M0 0 C1.51611328 1.32470703 1.51611328 1.32470703 3 3 C2.7421875 5.8046875 2.7421875 5.8046875 2 9 C1.85820313 10.01320313 1.71640625 11.02640625 1.5703125 12.0703125 C1.42335938 13.07835937 1.27640625 14.08640625 1.125 15.125 C0.98320313 16.13820313 0.84140625 17.15140625 0.6953125 18.1953125 C-0.05766169 21.23259043 -0.76282302 22.81862562 -3 25 C-5.26171875 25.609375 -5.26171875 25.609375 -7.6875 25.75 C-8.49574219 25.80671875 -9.30398437 25.8634375 -10.13671875 25.921875 C-11.05904297 25.96054687 -11.05904297 25.96054687 -12 26 C-11.443125 25.731875 -10.88625 25.46375 -10.3125 25.1875 C-9.549375 24.795625 -8.78625 24.40375 -8 24 C-7.12988281 23.68417969 -6.25976562 23.36835937 -5.36328125 23.04296875 C-1.47206538 19.67915735 -1.69788438 15.23754673 -1.1875 10.3125 C-1.06697266 9.32443359 -0.94644531 8.33636719 -0.82226562 7.31835938 C-0.52784416 4.88054966 -0.25465667 2.44223041 0 0 Z " fill="#735161" transform="translate(97,38)"/>
<path d="M0 0 C0.66 0 1.32 0 2 0 C1.67 2.97 1.34 5.94 1 9 C-1.77052181 9.92350727 -3.56688758 10.16329585 -6.4375 10.1875 C-7.19933594 10.20167969 -7.96117187 10.21585938 -8.74609375 10.23046875 C-11.23347315 9.97612666 -12.84808106 9.24017196 -15 8 C-12.11788698 7.03929566 -10.30149956 6.89418117 -7.3125 6.9375 C-6.10013672 6.95103516 -6.10013672 6.95103516 -4.86328125 6.96484375 C-3.94095703 6.98224609 -3.94095703 6.98224609 -3 7 C-2.87625 6.21625 -2.7525 5.4325 -2.625 4.625 C-2 2 -2 2 0 0 Z " fill="#FE50B6" transform="translate(63,55)"/>
<path d="M0 0 C2.6875 1.4375 2.6875 1.4375 5 3 C4.67 4.32 4.34 5.64 4 7 C1.6875 7.625 1.6875 7.625 -1 8 C-1.99 7.34 -2.98 6.68 -4 6 C-3.67 4.35 -3.34 2.7 -3 1 C-2.01 0.67 -1.02 0.34 0 0 Z " fill="#FE89CD" transform="translate(55,51)"/>
<path d="M0 0 C0.66 0 1.32 0 2 0 C2.5326514 6.258654 0.81849506 10.45108785 -2 16 C-2.66 15.67 -3.32 15.34 -4 15 C-2.07289294 4.44191344 -2.07289294 4.44191344 0 0 Z " fill="#7F5069" transform="translate(61,70)"/>
<path d="M0 0 C0.33 0 0.66 0 1 0 C1.44750374 7.90589945 0.36545233 15.55319804 -4.1875 22.1875 C-5.0846875 23.0846875 -5.0846875 23.0846875 -6 24 C-6.66 23.67 -7.32 23.34 -8 23 C-7.566875 22.505 -7.13375 22.01 -6.6875 21.5 C-2.3029131 15.0043157 -1.1873502 7.59904129 0 0 Z " fill="#7F777B" transform="translate(93,76)"/>
<path d="M0 0 C2.75 0.8125 2.75 0.8125 5 2 C5 3.98 5 5.96 5 8 C1.54074837 6.7508258 -1.14693203 5.32472205 -4 3 C-2.3125 1.375 -2.3125 1.375 0 0 Z " fill="#4D4349" transform="translate(50,36)"/>
<path d="M0 0 C0 0.99 0 1.98 0 3 C-0.99 3 -1.98 3 -3 3 C-2.01 2.01 -1.02 1.02 0 0 Z M-6 5 C-4.02 5.99 -4.02 5.99 -2 7 C-2.33 9.31 -2.66 11.62 -3 14 C-3.99 14.33 -4.98 14.66 -6 15 C-6 11.7 -6 8.4 -6 5 Z " fill="#E80E85" transform="translate(69,63)"/>
<path d="M0 0 C1.9375 0.8125 1.9375 0.8125 4 2 C4.33 2.99 4.66 3.98 5 5 C4.01 5.495 4.01 5.495 3 6 C2.01 6.66 1.02 7.32 0 8 C-0.99 7.67 -1.98 7.34 -3 7 C-3 6.01 -3 5.02 -3 4 C-2.34 4 -1.68 4 -1 4 C-0.67 2.68 -0.34 1.36 0 0 Z " fill="#383838" transform="translate(61,36)"/>
<path d="M0 0 C1.32 0.66 2.64 1.32 4 2 C3.38125 2.2475 2.7625 2.495 2.125 2.75 C-0.45879805 4.2698812 -0.92372237 5.23242895 -2 8 C-2.24029959 10.59154919 -2.24029959 10.59154919 -2.125 13.25 C-2.10695312 14.14203125 -2.08890625 15.0340625 -2.0703125 15.953125 C-2.04710937 16.62859375 -2.02390625 17.3040625 -2 18 C-4.6934876 15.3065124 -4.78924892 13.79351936 -5 10 C-4.21306886 7.19529672 -3.15817004 4.68695448 -2 2 C-1.34 2 -0.68 2 0 2 C0 1.34 0 0.68 0 0 Z " fill="#FB49B1" transform="translate(42,38)"/>
<path d="M0 0 C3.63 0.33 7.26 0.66 11 1 C11 1.66 11 2.32 11 3 C9.35 3.66 7.7 4.32 6 5 C6 4.34 6 3.68 6 3 C4.02 3 2.04 3 0 3 C0 2.01 0 1.02 0 0 Z " fill="#5B394B" transform="translate(35,61)"/>
<path d="M0 0 C1 2 1 2 0.22265625 4.6015625 C-0.16019531 5.59929688 -0.54304688 6.59703125 -0.9375 7.625 C-1.50791016 9.12933594 -1.50791016 9.12933594 -2.08984375 10.6640625 C-2.39019531 11.43492188 -2.69054687 12.20578125 -3 13 C-4.40944669 10.72752255 -5.10681701 9.57574366 -4.609375 6.89453125 C-4.32578125 6.20746094 -4.0421875 5.52039062 -3.75 4.8125 C-3.47671875 4.11769531 -3.2034375 3.42289063 -2.921875 2.70703125 C-2 1 -2 1 0 0 Z " fill="#62394F" transform="translate(69,46)"/>
<path d="M0 0 C1.98 0.99 1.98 0.99 4 2 C4 6.33094958 3.03435531 8.27034861 1 12 C-0.2077558 8.37673261 0.45688872 7.35853631 2 4 C1.34 4 0.68 4 0 4 C0 2.68 0 1.36 0 0 Z " fill="#422635" transform="translate(67,43)"/>
<path d="M0 0 C0.66 0.33 1.32 0.66 2 1 C-0.97 3.97 -3.94 6.94 -7 10 C-7 5.69032084 -4.83274712 4.10253255 -2 1 C-1.34 0.67 -0.68 0.34 0 0 Z " fill="#DA077A" transform="translate(78,41)"/>
<path d="M0 0 C-0.61875 0.350625 -1.2375 0.70125 -1.875 1.0625 C-4.75554253 3.68887702 -5.15462838 6.26627537 -6 10 C-6.33 10 -6.66 10 -7 10 C-7.125 3.375 -7.125 3.375 -6 0 C-3.50907189 -1.24546405 -2.58919267 -0.7767578 0 0 Z " fill="#D41E87" transform="translate(37,36)"/>
<path d="M0 0 C2 1 2 1 2.8125 3.3125 C3 6 3 6 1.6875 8.3125 C1.130625 8.869375 0.57375 9.42625 0 10 C-0.66 10 -1.32 10 -2 10 C-1.34 6.7 -0.68 3.4 0 0 Z " fill="#764E63" transform="translate(66,70)"/>
<path d="M0 0 C2.31 0 4.62 0 7 0 C7.33 0.99 7.66 1.98 8 3 C7.01 4.485 7.01 4.485 6 6 C3.96166576 4.7260411 1.96147874 3.38938077 0 2 C0 1.34 0 0.68 0 0 Z " fill="#5A223F" transform="translate(82,62)"/>
<path d="M0 0 C1.98 0.99 1.98 0.99 4 2 C4.37849614 6.54195365 3.9891703 7.0144396 1 11 C0.67 7.37 0.34 3.74 0 0 Z " fill="#5A263C" transform="translate(91,70)"/>
<path d="M0 0 C-0.33 2.97 -0.66 5.94 -1 9 C-1.66 9 -2.32 9 -3 9 C-3.33 6.36 -3.66 3.72 -4 1 C-2 0 -2 0 0 0 Z " fill="#D84499" transform="translate(65,55)"/>
<path d="M0 0 C0.33 0.99 0.66 1.98 1 3 C-2.83325617 5.70582788 -5.32538149 6.32613618 -10 6 C-9.443125 5.731875 -8.88625 5.46375 -8.3125 5.1875 C-3.87147737 3.00539268 -3.87147737 3.00539268 0 0 Z " fill="#8E8389" transform="translate(95,58)"/>
<path d="M0 0 C0.99 0 1.98 0 3 0 C4.35439668 2.70879335 4.06501451 5.00933268 4 8 C3.34 7.67 2.68 7.34 2 7 C1.26924352 4.6859378 0.59861742 2.35171131 0 0 Z " fill="#6A5661" transform="translate(59,46)"/>
</svg>
